<svg width="125" height="119" viewBox="0 0 125 119" fill="none" xmlns="http://www.w3.org/2000/svg">
<g clip-path="url(#clip0_1_14)">
<path fill-rule="evenodd" clip-rule="evenodd" d="M89.3497 101.325C97.8937 96.1176 98.3683 96.5691 93.859 99.7398C89.3497 102.908 97.4192 98.3815 93.1478 101.325L91.2494 103.136C91.2494 103.136 88.1639 106.533 86.0276 106.759C83.8913 106.984 88.3992 106.533 85.315 107.892C82.2295 109.249 59.6569 118.966 23.1341 93.6267C33.3411 109.929 51.377 117.175 66.5666 117.401C66.5666 117.401 61.8181 117.401 64.4303 117.854C67.0412 118.306 63.2431 121.702 40.9333 113.779C41.8851 115.815 42.1217 116.494 44.7327 117.854C44.7327 117.854 15.5392 108.343 5.33612 80.2678C5.57276 83.663 5.80941 87.5135 5.80941 87.5135C5.80941 87.5135 -8.90694 62.6057 8.65828 31.8129C26.2209 1.02014 64.9062 -0.111188 70.1267 0.114578C75.3486 0.340344 104.538 6.68051 111.184 13.2477C117.831 19.8124 107.863 15.5116 107.863 15.5116C107.863 15.5116 104.538 17.3227 109.999 20.0381C115.456 22.7573 121.389 31.8129 116.879 28.4164C112.371 25.0212 119.015 32.4927 119.728 32.9455C120.439 33.3983 109.76 28.4164 112.609 31.3601C115.456 34.3026 127.797 47.2099 123.764 51.0604C119.728 54.9084 118.303 44.2662 117.591 43.5877C116.879 42.9066 118.781 59.2104 117.591 61.9259C116.404 64.6438 116.642 55.8152 114.271 53.0973C111.898 50.3806 111.184 50.6064 109.522 50.6064C107.863 50.6064 103.354 46.3056 102.878 43.8134C102.403 41.3225 100.979 40.6427 98.8416 38.6058C96.7066 36.5677 93.3844 34.5308 89.3497 34.7566C85.315 34.9836 87.4514 30.2275 80.5678 30.2275C73.6855 30.2275 69.6495 29.0975 63.7177 31.5871C57.786 34.078 46.8677 37.0205 45.9172 37.2463C44.968 37.4733 55.885 31.5871 57.548 30.6803C59.2084 29.776 31.6781 36.5677 27.1688 46.9829C22.6582 57.4006 18.6261 75.286 34.0523 91.5873C49.4786 107.892 77.0077 109.475 89.3497 101.325Z" fill="#00CCA6"/>
</g>
<defs>
<clipPath id="clip0_1_14">
<rect width="124.528" height="118.868" fill="white" transform="translate(0.0377197 0.0943298)"/>
</clipPath>
</defs>
</svg>
